<svg width="500" height="529" viewBox="0 0 500 529" fill="none" xmlns="http://www.w3.org/2000/svg">
<path d="M500 528L318.029 50.736C306.381 20.186 277.081 0 244.386 0H178.577C172.216 0 167 5.08999 167 11.451C167 241.021 303.572 438.73 500 528Z" fill="#00D3F3"/>
<mask id="mask0_3_14" style="mask-type:luminance" maskUnits="userSpaceOnUse" x="0" y="108" width="184" height="421">
<path d="M0 528.014H129.792C164.198 451.811 183.351 367.25 183.351 278.211C183.351 219.301 174.959 162.36 159.323 108.493L0 528.014Z" fill="white"/>
</mask>
<g mask="url(#mask0_3_14)">
<path d="M0 528.014H129.792C164.198 451.811 183.351 367.25 183.351 278.211C183.351 229.737 177.669 182.596 166.944 137.404C164.727 128.063 152.115 127.473 148.706 136.448L0 528.014Z" fill="#00D3F3"/>
</g>
<mask id="mask1_3_14" style="mask-type:luminance" maskUnits="userSpaceOnUse" x="150" y="460" width="266" height="69">
<path d="M150 528.307H415.725C386.09 486.952 337.626 460 282.862 460C228.101 460 179.638 486.952 150 528.307Z" fill="white"/>
</mask>
<g mask="url(#mask1_3_14)">
<path d="M150 528.307H415.725C386.09 486.952 337.626 460 282.862 460C228.101 460 179.638 486.952 150 528.307Z" fill="#00D3F3"/>
</g>
</svg>
