<svg width="500" height="500" viewBox="0 0 500 500" fill="none" xmlns="http://www.w3.org/2000/svg">
<g clip-path="url(#clip0_4_37)">
<path opacity="0.2" d="M206.995 422H292.996C374.077 422 414.617 422 439.806 396.811C464.996 371.623 464.996 331.081 464.996 250C464.996 240.499 464.959 215.428 464.918 207H35C34.9594 215.428 34.9949 240.499 34.9949 250C34.9949 331.081 34.9949 371.623 60.1836 396.811C85.3726 422 125.913 422 206.995 422Z" fill="white"/>
<path d="M206.889 78H293.112C374.401 78 415.047 78 440.301 101.989C458.483 119.262 463.574 144.114 465 185.5V207H35V185.5C36.4254 144.114 41.5166 119.262 59.6994 101.989C84.9531 78 125.598 78 206.889 78Z" fill="white" fill-opacity="0.5"/>
<path d="M260.75 319.875C251.845 319.875 244.625 327.095 244.625 336C244.625 344.905 251.845 352.125 260.75 352.125H293C301.905 352.125 309.125 344.905 309.125 336C309.125 327.095 301.905 319.875 293 319.875H260.75Z" fill="white" fill-opacity="0.5"/>
<path d="M121 319.875C112.094 319.875 104.875 327.095 104.875 336C104.875 344.905 112.094 352.125 121 352.125H207C215.905 352.125 223.125 344.905 223.125 336C223.125 327.095 215.905 319.875 207 319.875H121Z" fill="white" fill-opacity="0.5"/>
<g clip-path="url(#clip1_4_37)">
<mask id="mask0_4_37" style="mask-type:luminance" maskUnits="userSpaceOnUse" x="282" y="276" width="206" height="206">
<path d="M481.5 282.5V475.5H288.5V282.5H481.5Z" fill="white" stroke="white" stroke-width="13"/>
</mask>
<g mask="url(#mask0_4_37)">
<path d="M481.562 379.006C481.562 432.335 438.328 475.569 385 475.569C331.672 475.569 288.438 432.335 288.438 379.006M481.562 379.006C481.562 325.678 438.328 282.444 385 282.444C331.672 282.444 288.438 325.678 288.438 379.006M481.562 379.006H288.438M358.181 286.222C342.493 313.549 333.526 345.235 333.526 379.006C333.526 412.777 342.487 444.462 358.181 471.789M411.844 471.778C427.538 444.457 436.499 412.778 436.499 379.007C436.499 345.249 427.532 313.583 411.857 286.236M460.025 439.767C437.068 429.692 411.698 424.091 385.028 424.091C358.331 424.091 332.948 429.705 309.973 439.793M309.994 318.253C332.95 328.347 358.333 333.947 385.023 333.947C411.707 333.947 437.077 328.34 460.052 318.253M384.994 282.438V475.562" stroke="white" stroke-width="13" stroke-linecap="round" stroke-linejoin="round"/>
</g>
</g>
</g>
<defs>
<clipPath id="clip0_4_37">
<rect width="500" height="500" fill="white"/>
</clipPath>
<clipPath id="clip1_4_37">
<rect width="206" height="206" fill="white" transform="translate(282 276)"/>
</clipPath>
</defs>
</svg>
