<svg width="500" height="500" viewBox="0 0 500 500" fill="none" xmlns="http://www.w3.org/2000/svg">
<g clip-path="url(#clip0_4_51)">
<path d="M250.5 483C379.458 483 484 378.458 484 249.5C484 120.542 379.458 16 250.5 16C121.542 16 17 120.542 17 249.5C17 378.458 121.542 483 250.5 483Z" fill="#26A17B"/>
<path fill-rule="evenodd" clip-rule="evenodd" d="M278.549 269.683V269.654C276.944 269.771 268.669 270.267 250.208 270.267C235.468 270.267 225.092 269.829 221.444 269.654V269.698C164.703 267.202 122.352 257.322 122.352 245.501C122.352 233.695 164.703 223.815 221.444 221.276V259.862C225.151 260.124 235.775 260.752 250.456 260.752C268.071 260.752 276.9 260.022 278.549 259.876V221.305C335.173 223.83 377.422 233.71 377.422 245.501C377.422 257.322 335.173 267.173 278.549 269.683ZM278.549 217.292V182.763H357.56V130.109H142.433V182.763H221.444V217.277C157.231 220.225 108.941 232.951 108.941 248.187C108.941 263.422 157.231 276.134 221.444 279.096V389.746H278.549V279.067C342.66 276.119 390.833 263.408 390.833 248.187C390.833 232.965 342.66 220.254 278.549 217.292Z" fill="white"/>
</g>
<defs>
<clipPath id="clip0_4_51">
<rect width="467" height="467" fill="white" transform="translate(17 16)"/>
</clipPath>
</defs>
</svg>
