<svg width="500" height="500" viewBox="0 0 500 500" fill="none" xmlns="http://www.w3.org/2000/svg">
<g clip-path="url(#clip0_1_2)">
<path d="M101 143.278L146.785 225.099V275.008L101.054 356.668L101 143.278Z" fill="#5B57A2"/>
<path d="M276.796 195.325L319.698 169.036L407.499 168.954L276.796 249.008V195.325Z" fill="#D90751"/>
<path d="M276.553 142.796L276.796 251.125L230.904 222.932V61L276.553 142.796Z" fill="#FAB718"/>
<path d="M407.499 168.954L319.695 169.036L276.553 142.796L230.904 61L407.499 168.954Z" fill="#ED6F26"/>
<path d="M276.796 357.122V304.564L230.904 276.907L230.929 439L276.796 357.122Z" fill="#63B22F"/>
<path d="M319.591 331.072L146.782 225.099L101 143.278L407.313 330.964L319.591 331.072Z" fill="#1487C9"/>
<path d="M230.932 439L276.792 357.122L319.587 331.072L407.31 330.964L230.932 439Z" fill="#017F36"/>
<path d="M101.054 356.668L231.278 276.91L187.497 250.054L146.785 275.008L101.054 356.668Z" fill="#984995"/>
</g>
<defs>
<clipPath id="clip0_1_2">
<rect width="500" height="500" fill="white"/>
</clipPath>
</defs>
</svg>
